<svg width="129" height="33" viewBox="0 0 129 33" fill="none" xmlns="http://www.w3.org/2000/svg">
<path d="M41.194 6.90047C39.3298 6.90047 38.3977 7.95515 38.3977 10.0645V11.2418H43.601V14.9209H38.5393V30.7411H34.1148V14.9209H31V11.2418H34.1148V9.99093C34.1148 7.88157 34.7048 6.21984 35.8846 5.00573C37.0645 3.79162 38.7281 3.18457 40.8755 3.18457C42.5745 3.18457 43.9077 3.54022 44.8752 4.25151L43.6363 7.70988C42.9224 7.18387 42.0691 6.90107 41.194 6.90047ZM50.5385 30.9987C48.7393 31.0269 46.9621 30.5841 45.3707 29.711C43.8734 28.8889 42.6285 27.646 41.7781 26.1239C40.9042 24.5412 40.4578 22.7425 40.4861 20.9179C40.4562 19.0989 40.9028 17.3058 41.7781 15.7304C42.6326 14.2163 43.8769 12.9803 45.3707 12.1616C46.9621 11.2885 48.7393 10.8457 50.5385 10.8739C52.3494 10.8428 54.1387 11.2856 55.7418 12.1616C57.2356 12.9803 58.4799 14.2163 59.3344 15.7304C60.2097 17.3058 60.6563 19.0989 60.6264 20.9179C60.6547 22.7425 60.2083 24.5412 59.3344 26.1239C58.484 27.646 57.2391 28.8889 55.7418 29.711C54.1387 30.5869 52.3494 31.0298 50.5385 30.9987ZM50.5385 27.062C51.2872 27.0859 52.0325 26.9478 52.7272 26.6565C53.4218 26.3651 54.0506 25.9269 54.5737 25.3696C55.6356 24.2414 56.1665 22.7575 56.1665 20.9179C56.1665 19.0783 55.6356 17.5944 54.5737 16.4662C54.0506 15.9089 53.4218 15.4707 52.7272 15.1794C52.0325 14.888 51.2872 14.7499 50.5385 14.7738C49.7924 14.7488 49.0494 14.8864 48.3575 15.1779C47.6656 15.4694 47.04 15.9082 46.5211 16.4662C45.471 17.5944 44.946 19.0783 44.946 20.9179C44.946 22.7575 45.471 24.2414 46.5211 25.3696C47.04 25.9276 47.6656 26.3664 48.3575 26.6579C49.0494 26.9494 49.7924 27.087 50.5385 27.062ZM64.8385 13.9644C66.1128 11.9041 68.4072 10.3783 73.1919 11.0947L71.5637 15.2521C71.2256 15.1826 70.8819 15.1457 70.5372 15.1417C68.8146 15.1417 67.4696 15.6629 66.5021 16.7053C65.5346 17.7477 65.0509 19.25 65.0509 21.2122V30.7411H60.6264V11.0947H64.8385V13.9644ZM101.261 11.0947L94.2879 30.7411H90.0404L85.1558 17.202L80.2003 30.7411H75.9528L69.0152 11.0947H73.1919L78.1828 25.5904L83.386 11.0947H87.1025L92.1995 25.664L97.332 11.0947H101.261ZM104.27 13.9644C105.544 11.9041 107.786 10.8739 110.995 10.8739V15.2521C110.657 15.1826 110.313 15.1457 109.968 15.1417C108.246 15.1417 106.901 15.6629 105.933 16.7053C104.966 17.7477 104.482 19.25 104.482 21.2122V30.7411H100.057V11.0947H104.27V13.9644ZM128.834 3.44211V30.7411H124.587V28.2026C123.867 29.1256 122.936 29.8466 121.879 30.2996C120.75 30.7768 119.54 31.0144 118.322 30.9987C116.611 31.0262 114.923 30.5954 113.419 29.7478C111.979 28.9256 110.795 27.6941 110.004 26.1974C109.157 24.579 108.73 22.7596 108.765 20.9179C108.729 19.0818 109.156 17.268 110.004 15.6568C110.799 14.168 111.983 12.9435 113.419 12.1248C114.923 11.2772 116.611 10.8464 118.322 10.8739C119.497 10.8592 120.663 11.0842 121.755 11.5362C122.78 11.9679 123.691 12.6492 124.41 13.5229V3.44211H128.834ZM118.853 27.062C119.856 27.0777 120.845 26.8175 121.72 26.3078C122.573 25.8011 123.272 25.0553 123.737 24.1555C124.248 23.1603 124.504 22.0455 124.481 20.9179C124.504 19.7903 124.248 18.6755 123.737 17.6803C123.272 16.7805 122.573 16.0348 121.72 15.528C120.845 15.0183 119.856 14.7581 118.853 14.7738C117.85 14.7581 116.861 15.0183 115.986 15.528C115.132 16.0348 114.433 16.7805 113.968 17.6803C113.458 18.6755 113.202 19.7903 113.225 20.9179C113.202 22.0455 113.458 23.1603 113.968 24.1555C114.433 25.0553 115.132 25.8011 115.986 26.3078C116.861 26.8175 117.85 27.0777 118.853 27.062Z" fill="black"/>
<path fill-rule="evenodd" clip-rule="evenodd" d="M20.6993 10.2696L22.8293 8.67206C22.9984 8.56589 23.158 8.44603 23.3067 8.31403L23.5768 8.11148L23.5876 8.0358C24.1659 7.3968 24.5185 6.54906 24.5193 5.6187C24.5211 3.6277 22.9111 2.01224 20.9234 2.01047L9.20035 2C8.63918 1.9995 8.1079 2.12766 7.63431 2.35667H7.5332L3.03444 5.23404C2.39549 5.88402 2.00091 6.77578 2.00003 7.76001C1.99825 9.751 3.60822 11.3665 5.59598 11.3682L17.319 11.3787C18.3727 11.3796 19.6202 10.989 20.6993 10.2696ZM11.564 21.1018L5.59599 21.0913C3.60822 21.0895 1.99826 19.4741 2.00004 17.4831C2.00092 16.4988 2.39549 15.6071 3.03444 14.9571L7.5332 12.0797H7.57164C8.06057 11.8316 8.61366 11.692 9.19929 11.6925L15.3034 11.703C17.2912 11.7048 18.9012 13.3202 18.8994 15.3112C18.8981 16.7441 18.0623 17.9811 16.8529 18.5612L14.9444 19.9926C13.8653 20.712 12.6178 21.1027 11.564 21.1018ZM5.59595 30.4422L5.80907 30.4527C6.86279 30.4536 8.11033 30.063 9.18938 29.3436L11.0369 28.0169C11.2015 27.9178 11.3575 27.8056 11.5034 27.6819L11.7083 27.5348L11.7245 27.4779C12.3662 26.8338 12.7633 25.9451 12.7642 24.9633C12.766 22.9947 11.1741 21.3975 9.20878 21.3957L9.1647 21.3854C8.24843 21.3845 7.41273 21.7307 6.78145 22.2999L3.03441 24.308C2.39546 24.958 2.00088 25.8498 2 26.834C1.99822 28.825 3.60819 30.4405 5.59595 30.4422Z" fill="white"/>
<path fill-rule="evenodd" clip-rule="evenodd" d="M2.89474 12.6724C1.16646 11.7162 -0.0018544 9.87219 3.26811e-05 7.75822C0.00139715 6.22968 0.616542 4.84073 1.60818 3.83198L1.76653 3.6709L7.22893 0.356674C7.84456 0.125252 8.51042 -0.000615361 9.20215 2.26219e-06L20.9252 0.0104673C24.0206 0.0132306 26.5221 2.52798 26.5194 5.62049C26.5183 6.82308 26.1371 7.93999 25.4912 8.85294L24.5656 9.86988C24.3778 10.0313 24.179 10.1805 23.9704 10.3163L21.8549 11.9029L21.8088 11.9337C21.328 12.2542 20.8138 12.5288 20.2835 12.7499C20.678 13.5185 20.9003 14.39 20.8994 15.313C20.8975 17.4641 20 19 18 20.5L16.1 21.626L16.0538 21.6568C15.4849 22.036 14.8693 22.3509 14.2356 22.589C14.5754 23.31 14.765 24.1156 14.7642 24.9651C14.763 26.291 14.5 27.5 13.5223 28.4659L12.1452 29.6833L10.2988 31.0077C8.93822 31.9148 7.04354 32.4433 5.54088 32.4419C2.47012 32.4106 -0.00274251 29.907 2.28276e-06 26.8322C0.00136675 25.3037 0.616512 23.9147 1.60815 22.906L1.82147 22.689L2.6441 22.2481C1.05447 21.2574 -0.00175713 19.4914 3.72111e-05 17.4813C0.0014018 15.9527 0.616547 14.5638 1.60819 13.555L1.76654 13.394L2.89474 12.6724ZM4.92162 21.0275C5.14005 21.0692 5.36548 21.0911 5.596 21.0913L11.5641 21.1018C12.016 21.1022 12.5035 21.0306 12.9981 20.8919C13.6568 20.7072 14.3281 20.4035 14.9444 19.9927L16.853 18.5612C18.0624 17.9811 18.8982 16.7441 18.8994 15.3112C18.9001 14.5698 18.6772 13.8804 18.2946 13.3071C18.0357 12.9192 17.7037 12.5844 17.3182 12.3225C16.7435 11.932 16.0502 11.7037 15.3035 11.703L9.19932 11.6925C8.61368 11.692 8.06059 11.8316 7.57166 12.0797H7.53322L3.03445 14.9571C2.3955 15.6071 2.00092 16.4988 2.00004 17.4831C1.99847 19.2432 3.2565 20.7098 4.92162 21.0275ZM9.2088 21.3957L9.16472 21.3854C8.24845 21.3846 7.41275 21.7307 6.78147 22.2999L3.03441 24.308C2.39546 24.958 2.00088 25.8498 2 26.834C1.99822 28.825 3.60819 30.4405 5.59596 30.4422L5.80908 30.4527C6.8628 30.4536 8.11035 30.063 9.1894 29.3436L11.0369 28.0169C11.2015 27.9178 11.3575 27.8056 11.5034 27.6819L11.7083 27.5348L11.7246 27.4779C12.3663 26.8338 12.7634 25.9451 12.7642 24.9633C12.7649 24.2673 12.5663 23.6178 12.2225 23.0688C12.0407 22.7784 11.8182 22.5161 11.563 22.2899L11.562 22.289C10.9352 21.7338 10.1114 21.3965 9.2088 21.3957Z" fill="white"/>
<path d="M5.59894 11.3713L17.322 11.3818C18.3757 11.3828 19.6232 10.9921 20.7023 10.2727L23.5798 8.11459L23.9395 5.5968L21.062 2.35978L7.53616 2.35978L3.03738 5.23715C2.39843 5.88713 2.00385 6.77889 2.00297 7.76312C2.0012 9.75411 3.61116 11.3696 5.59894 11.3713Z" fill="black"/>
<path fill-rule="evenodd" clip-rule="evenodd" d="M5.59983 10.3713L17.3229 10.3818C18.1456 10.3825 19.1926 10.0712 20.1254 9.4554L22.6484 7.56312L22.8839 5.91453L20.6129 3.35978L7.8286 3.35978L3.6791 6.01376C3.25882 6.47654 3.00358 7.08935 3.00297 7.76401C3.00169 9.20425 4.16587 10.3701 5.59983 10.3713ZM3.03738 5.23715L7.67736 2.35978L21.062 2.35978L23.9395 5.5968L23.5798 8.11459L20.7023 10.2727C19.6232 10.9921 18.3757 11.3828 17.322 11.3818L5.59894 11.3713C3.61116 11.3696 2.0012 9.75411 2.00297 7.76312C2.00385 6.77889 2.39843 5.88713 3.03738 5.23715Z" fill="black"/>
<path d="M5.59894 21.0947L11.567 21.1052C12.6207 21.1061 13.8683 20.7155 14.9473 19.9961L17.8248 17.838L18.1845 15.3202L15.307 12.0832L7.53616 12.0832L3.03739 14.9605C2.39844 15.6105 2.00386 16.5023 2.00298 17.4865C2.0012 19.4775 3.61117 21.093 5.59894 21.0947Z" fill="black"/>
<path fill-rule="evenodd" clip-rule="evenodd" d="M5.59894 21.0947L11.567 21.1052C12.6207 21.1061 13.8683 20.7155 14.9473 19.9961L17.8248 17.838L18.1845 15.3202L15.307 12.0832L7.53616 12.0832L3.03739 14.9605C2.39844 15.6105 2.00386 16.5023 2.00298 17.4865C2.0012 19.4775 3.61117 21.093 5.59894 21.0947ZM3.6791 15.7371C3.25882 16.1999 3.00358 16.8127 3.00298 17.4874C3.00169 18.9276 4.16587 20.0934 5.59983 20.0947L11.5679 20.1052C12.3905 20.1057 13.438 19.7943 14.3704 19.1788L16.8935 17.2865L17.129 15.6379L14.858 13.0832L7.82861 13.0832L3.6791 15.7371Z" fill="black"/>
<path d="M5.59926 30.4455L5.81237 30.456C6.86609 30.4569 8.11364 30.0662 9.1927 29.3468L11.7116 27.5381L12.4309 25.0201L9.55347 21.7831L7.75505 21.7831L3.0377 24.3113C2.39875 24.9613 2.00417 25.853 2.00329 26.8373C2.00152 28.8283 3.61148 30.4437 5.59926 30.4455Z" fill="black"/>
<path fill-rule="evenodd" clip-rule="evenodd" d="M5.59926 30.4455L5.81237 30.456C6.86609 30.4569 8.11364 30.0662 9.1927 29.3468L11.7116 27.5381L12.4309 25.0201L9.55347 21.7831L7.75505 21.7831L3.0377 24.3113C2.39875 24.9613 2.00417 25.853 2.00329 26.8373C2.00152 28.8283 3.61148 30.4437 5.59926 30.4455ZM3.65525 25.1149L8.00612 22.7831L9.10442 22.7831L11.3184 25.2738L10.8456 26.9288L8.62408 28.524C7.69774 29.1378 6.65746 29.451 5.83575 29.4559L5.62424 29.4455L5.60015 29.4455C4.16619 29.4442 3.00201 28.2784 3.00329 26.8381C3.00388 26.1765 3.24937 25.5744 3.65525 25.1149Z" fill="black"/>
<path d="M5.60619 24.9501C5.60795 22.9816 7.20262 21.3872 9.16799 21.3889L9.21207 21.3993C11.1774 21.401 12.7693 22.9983 12.7675 24.9668C12.7657 26.9354 11.1711 28.5298 9.20571 28.5281L9.16162 28.5177C7.19626 28.5159 5.60444 26.9187 5.60619 24.9501Z" fill="white"/>
<path fill-rule="evenodd" clip-rule="evenodd" d="M9.31281 27.526C10.6753 27.4714 11.7663 26.348 11.7675 24.9659C11.7688 23.5481 10.6227 22.4005 9.21118 22.3993L9.09584 22.3992L9.06102 22.391C7.69847 22.4455 6.60743 23.5689 6.60619 24.951C6.60493 26.3688 7.75096 27.5164 9.16252 27.5177L9.278 27.5178L9.31281 27.526ZM9.16799 21.3889L9.21207 21.3993C11.1774 21.401 12.7693 22.9983 12.7675 24.9668C12.7657 26.9354 11.1711 28.5298 9.20571 28.5281L9.16162 28.5177C7.19626 28.5159 5.60444 26.9187 5.60619 24.9501C5.60795 22.9816 7.20262 21.3872 9.16799 21.3889Z" fill="black"/>
<path d="M5.60127 5.60502C5.60305 3.61402 7.2159 2.00144 9.20367 2.00321L20.9267 2.01368C22.9145 2.01545 24.5245 3.63091 24.5227 5.62191C24.5209 7.61291 22.9081 9.22549 20.9203 9.22372L9.19724 9.21325C7.20946 9.21148 5.5995 7.59602 5.60127 5.60502Z" fill="white"/>
<path fill-rule="evenodd" clip-rule="evenodd" d="M20.9258 3.01368L9.20278 3.00321C7.76882 3.00193 6.60256 4.16567 6.60127 5.60591C6.59999 7.04615 7.76417 8.21197 9.19813 8.21325L20.9212 8.22372C22.3551 8.225 23.5214 7.06126 23.5227 5.62102C23.524 4.18078 22.3598 3.01496 20.9258 3.01368ZM9.20367 2.00321C7.2159 2.00144 5.60305 3.61402 5.60127 5.60502C5.5995 7.59601 7.20946 9.21148 9.19724 9.21325L20.9203 9.22372C22.9081 9.22549 24.5209 7.61291 24.5227 5.62191C24.5245 3.63091 22.9145 2.01545 20.9267 2.01368L9.20367 2.00321Z" fill="black"/>
<path d="M5.6003 15.2979C5.60207 13.3069 7.21492 11.6943 9.2027 11.6961L15.3069 11.7065C17.2946 11.7083 18.9046 13.3238 18.9028 15.3148C18.901 17.3058 17.2882 18.9184 15.3004 18.9166L9.19626 18.9061C7.20849 18.9043 5.59852 17.2889 5.6003 15.2979Z" fill="white"/>
<path fill-rule="evenodd" clip-rule="evenodd" d="M9.19797 17.9061L15.3013 17.9166C15.3014 17.9166 15.3012 17.9166 15.3013 17.9166C16.7352 17.9177 17.9015 16.7541 17.9028 15.3139C17.9041 13.8736 16.7399 12.7078 15.306 12.7065L9.2018 12.6961C9.20168 12.6961 9.20192 12.6961 9.2018 12.6961C7.76801 12.695 6.60158 13.8587 6.6003 15.2988C6.59901 16.739 7.76401 17.9048 9.19797 17.9061ZM15.3004 18.9166L9.19626 18.9061C7.20849 18.9043 5.59852 17.2889 5.6003 15.2979C5.60207 13.3069 7.21492 11.6943 9.2027 11.6961L15.3069 11.7065C17.2946 11.7083 18.9046 13.3238 18.9028 15.3148C18.901 17.3058 17.2882 18.9184 15.3004 18.9166Z" fill="black"/>
</svg>
